<mxfile host="app.diagrams.net" modified="2021-12-07T19:58:54.882Z" agent="5.0 (Windows NT 10.0; Win64; x64) AppleWebKit/537.36 (KHTML, like Gecko) Chrome/96.0.4664.45 Safari/537.36" etag="jcraK7nitkFC8f52XuCi" version="15.9.1" type="github">
  <diagram id="FPl6NgjI90O2JMttkpE9" name="Page-1">
    <mxGraphModel dx="1278" dy="579" grid="1" gridSize="10" guides="1" tooltips="1" connect="1" arrows="1" fold="1" page="1" pageScale="1" pageWidth="850" pageHeight="1100" math="0" shadow="0">
      <root>
        <mxCell id="0" />
        <mxCell id="1" parent="0" />
        <mxCell id="zHjO_5bQQABmnTfJBV8q-4" value="" style="edgeStyle=orthogonalEdgeStyle;rounded=0;orthogonalLoop=1;jettySize=auto;html=1;" edge="1" parent="1" source="zHjO_5bQQABmnTfJBV8q-1">
          <mxGeometry relative="1" as="geometry">
            <mxPoint x="385" y="210" as="targetPoint" />
          </mxGeometry>
        </mxCell>
        <mxCell id="zHjO_5bQQABmnTfJBV8q-1" value="Actor" style="shape=umlActor;verticalLabelPosition=bottom;verticalAlign=top;html=1;outlineConnect=0;" vertex="1" parent="1">
          <mxGeometry x="370" y="30" width="30" height="60" as="geometry" />
        </mxCell>
        <mxCell id="zHjO_5bQQABmnTfJBV8q-2" value="New transaction&lt;br&gt;" style="text;html=1;strokeColor=none;fillColor=none;align=center;verticalAlign=middle;whiteSpace=wrap;rounded=0;" vertex="1" parent="1">
          <mxGeometry x="50" y="40" width="60" height="30" as="geometry" />
        </mxCell>
        <mxCell id="zHjO_5bQQABmnTfJBV8q-7" value="" style="edgeStyle=orthogonalEdgeStyle;rounded=0;orthogonalLoop=1;jettySize=auto;html=1;" edge="1" parent="1" source="zHjO_5bQQABmnTfJBV8q-5" target="zHjO_5bQQABmnTfJBV8q-6">
          <mxGeometry relative="1" as="geometry" />
        </mxCell>
        <mxCell id="zHjO_5bQQABmnTfJBV8q-5" value="Initialize transaction" style="rounded=0;whiteSpace=wrap;html=1;" vertex="1" parent="1">
          <mxGeometry x="330" y="210" width="120" height="60" as="geometry" />
        </mxCell>
        <mxCell id="zHjO_5bQQABmnTfJBV8q-9" value="" style="edgeStyle=orthogonalEdgeStyle;rounded=0;orthogonalLoop=1;jettySize=auto;html=1;" edge="1" parent="1" source="zHjO_5bQQABmnTfJBV8q-6" target="zHjO_5bQQABmnTfJBV8q-8">
          <mxGeometry relative="1" as="geometry" />
        </mxCell>
        <mxCell id="zHjO_5bQQABmnTfJBV8q-6" value="Fill out form" style="whiteSpace=wrap;html=1;rounded=0;" vertex="1" parent="1">
          <mxGeometry x="330" y="380" width="120" height="60" as="geometry" />
        </mxCell>
        <mxCell id="zHjO_5bQQABmnTfJBV8q-14" value="Invalid" style="edgeStyle=orthogonalEdgeStyle;rounded=0;orthogonalLoop=1;jettySize=auto;html=1;entryX=0.5;entryY=1;entryDx=0;entryDy=0;" edge="1" parent="1" source="zHjO_5bQQABmnTfJBV8q-8" target="zHjO_5bQQABmnTfJBV8q-13">
          <mxGeometry relative="1" as="geometry" />
        </mxCell>
        <mxCell id="zHjO_5bQQABmnTfJBV8q-22" value="" style="edgeStyle=orthogonalEdgeStyle;rounded=0;orthogonalLoop=1;jettySize=auto;html=1;" edge="1" parent="1" source="zHjO_5bQQABmnTfJBV8q-8" target="zHjO_5bQQABmnTfJBV8q-21">
          <mxGeometry relative="1" as="geometry" />
        </mxCell>
        <mxCell id="zHjO_5bQQABmnTfJBV8q-8" value="Validate usr and amount" style="rhombus;whiteSpace=wrap;html=1;rounded=0;" vertex="1" parent="1">
          <mxGeometry x="350" y="510" width="80" height="90" as="geometry" />
        </mxCell>
        <mxCell id="zHjO_5bQQABmnTfJBV8q-17" value="Invalid user&lt;br&gt;" style="edgeStyle=orthogonalEdgeStyle;rounded=0;orthogonalLoop=1;jettySize=auto;html=1;entryX=1;entryY=0.5;entryDx=0;entryDy=0;" edge="1" parent="1" source="zHjO_5bQQABmnTfJBV8q-13" target="zHjO_5bQQABmnTfJBV8q-6">
          <mxGeometry relative="1" as="geometry" />
        </mxCell>
        <mxCell id="zHjO_5bQQABmnTfJBV8q-20" value="Not enough money" style="edgeStyle=orthogonalEdgeStyle;rounded=0;orthogonalLoop=1;jettySize=auto;html=1;entryX=0.5;entryY=1;entryDx=0;entryDy=0;" edge="1" parent="1" source="zHjO_5bQQABmnTfJBV8q-13" target="zHjO_5bQQABmnTfJBV8q-19">
          <mxGeometry relative="1" as="geometry" />
        </mxCell>
        <mxCell id="zHjO_5bQQABmnTfJBV8q-13" value="" style="rhombus;whiteSpace=wrap;html=1;" vertex="1" parent="1">
          <mxGeometry x="620" y="385" width="50" height="50" as="geometry" />
        </mxCell>
        <mxCell id="zHjO_5bQQABmnTfJBV8q-19" value="Return to home page&lt;br&gt;" style="rounded=0;whiteSpace=wrap;html=1;" vertex="1" parent="1">
          <mxGeometry x="585" y="210" width="120" height="60" as="geometry" />
        </mxCell>
        <mxCell id="zHjO_5bQQABmnTfJBV8q-23" value="After 5 minutes" style="edgeStyle=orthogonalEdgeStyle;rounded=0;orthogonalLoop=1;jettySize=auto;html=1;" edge="1" parent="1" source="zHjO_5bQQABmnTfJBV8q-21">
          <mxGeometry relative="1" as="geometry">
            <mxPoint x="390" y="930" as="targetPoint" />
          </mxGeometry>
        </mxCell>
        <mxCell id="zHjO_5bQQABmnTfJBV8q-21" value="Start mining" style="whiteSpace=wrap;html=1;rounded=0;" vertex="1" parent="1">
          <mxGeometry x="330" y="750" width="120" height="60" as="geometry" />
        </mxCell>
        <mxCell id="zHjO_5bQQABmnTfJBV8q-24" value="Finalize transaction&lt;br&gt;" style="rounded=0;whiteSpace=wrap;html=1;" vertex="1" parent="1">
          <mxGeometry x="330" y="930" width="120" height="60" as="geometry" />
        </mxCell>
      </root>
    </mxGraphModel>
  </diagram>
</mxfile>
